<?xml version="1.0" encoding="iso-8859-1"?>
<!-- Generator: Adobe Illustrator 18.0.0, SVG Export Plug-In . SVG Version: 6.00 Build 0)  -->
<!DOCTYPE svg PUBLIC "-//W3C//DTD SVG 1.1//EN" "http://www.w3.org/Graphics/SVG/1.1/DTD/svg11.dtd">
<svg version="1.1" id="Capa_1" xmlns="http://www.w3.org/2000/svg" xmlns:xlink="http://www.w3.org/1999/xlink" x="0px" y="0px"
	 viewBox="0 0 444.816 444.816" style="enable-background:new 0 0 444.816 444.816;" xml:space="preserve">
<g>
	<path style="fill:#020202;" d="M162.871,374.489l-18.688-18.687l56.661-56.734l-13.475-18.392l-59.127,59.186l-18.937-18.936
		h-0.015l62.093-62.078l-2.716-3.699c-9.352-0.896-18.011-4.784-25.116-10.98l-68.168,68.155c-1.307,1.306-2.933,3.327-3.988,7.103
		c-7.47,26.702-29.848,104.268-29.848,104.268c-1.513,5.255-0.044,10.907,3.816,14.767c2.862,2.864,6.693,4.404,10.627,4.404
		c1.38,0,2.775-0.191,4.14-0.588l104.853-30.063c2.451-0.704,4.683-2.011,6.487-3.816l63.18-63.178l-17.967-24.528L162.871,374.489z
		 M102.466,398.87l-17.541-17.512l11.787-41.145l46.886,46.871L102.466,398.87z"/>
	<path style="fill:#020202;" d="M254.673,169.011l3.788,2.775l35.728-35.715l18.804,18.805l-32.794,32.837l18.409,13.476
		l30.325-30.371l18.819,18.818l-27.45,27.45l24.528,17.967l58.526-57.395c26.76-26.759,26.774-70.151,0.015-96.925l-0.03-0.03
		c-12.844-12.843-30.267-20.065-48.439-20.08c-18.173,0-35.612,7.222-48.457,20.067l-62.679,63.281
		C250.065,151.22,253.836,159.94,254.673,169.011z"/>
	<path style="fill:#020202;" d="M162.416,220.887c2.936,2.936,6.781,4.404,10.627,4.404c3.112,0,6.092-1.219,8.72-3.142
		l21.416,29.225l47.78-47.809l-29.21-21.403c4.3-5.871,4.051-14.033-1.263-19.347c-2.936-2.936-6.782-4.403-10.628-4.403
		c-3.846,0-7.692,1.467-10.628,4.403l-36.814,36.816C156.544,205.504,156.544,215.016,162.416,220.887z"/>
	<path style="fill:#020202;" d="M417.405,325.49L275.502,221.534l-54.356,54.385l103.943,141.888
		c11.391,15.545,29.006,25.335,48.235,26.819c1.688,0.132,3.361,0.191,5.034,0.191c17.453,0,34.261-6.899,46.708-19.347
		c13.639-13.638,20.625-32.529,19.158-51.744C442.741,354.496,432.95,336.881,417.405,325.49z"/>
	<path style="fill:#020202;" d="M117.19,187.919c6.988,0.821,13.96-0.778,19.802-4.434c1.923-1.203,3.729-2.627,5.372-4.27
		c0,0,29.661-29.723,39.59-39.589c9.957-9.895,10.158-19.583,8.221-28.257c-4.463-19.846-14.43-39.076-27.112-51.113
		c-36.874-35.053-57.527-8.763-93.726-19.949C46.29,33.172,25.93,14.25,14.819,2.286C12.968,0.29,10.15-0.471,7.553,0.29
		C4.939,1.069,3.001,3.256,2.547,5.927C-2.298,33.833-4.484,99.155,59.75,163.389C72.757,176.381,94.819,185.262,117.19,187.919z"/>
</g>
<g>
</g>
<g>
</g>
<g>
</g>
<g>
</g>
<g>
</g>
<g>
</g>
<g>
</g>
<g>
</g>
<g>
</g>
<g>
</g>
<g>
</g>
<g>
</g>
<g>
</g>
<g>
</g>
<g>
</g>
</svg>
