<?xml version="1.0" encoding="iso-8859-1"?>
<!-- Generator: Adobe Illustrator 18.0.0, SVG Export Plug-In . SVG Version: 6.00 Build 0)  -->
<!DOCTYPE svg PUBLIC "-//W3C//DTD SVG 1.1//EN" "http://www.w3.org/Graphics/SVG/1.1/DTD/svg11.dtd">
<svg version="1.1" id="Capa_1" xmlns="http://www.w3.org/2000/svg" xmlns:xlink="http://www.w3.org/1999/xlink" x="0px" y="0px"
	 viewBox="0 0 475.449 475.449" style="enable-background:new 0 0 475.449 475.449;" xml:space="preserve">
<g>
	<path style="fill:#020202;" d="M442.402,0.986H115.087c-18.226,0-33.048,14.822-33.048,33.048v35.83H98.26h135.363h209.415v291.485
		c0,0.342-0.279,0.62-0.636,0.62h-55.533v32.428h55.533c18.209,0,33.047-14.822,33.047-33.048V34.034
		C475.449,15.808,460.611,0.986,442.402,0.986z M319.391,53.347c-9.99,0-18.102-8.079-18.102-18.085
		c0-4.351,1.74-8.205,4.319-11.313c3.31-4.04,8.142-6.759,13.782-6.759c5.609,0,10.441,2.719,13.767,6.759
		c2.564,3.108,4.304,6.961,4.304,11.313C337.461,45.268,329.366,53.347,319.391,53.347z M368.008,53.347
		c-9.99,0-18.102-8.079-18.102-18.085c0-4.351,1.757-8.205,4.336-11.313c3.31-4.04,8.125-6.759,13.766-6.759
		c5.624,0,10.426,2.719,13.766,6.759c2.564,3.108,4.304,6.961,4.304,11.313C386.077,45.268,377.968,53.347,368.008,53.347z
		 M416.609,53.347c-9.976,0-18.071-8.079-18.071-18.085c0-4.351,1.726-8.205,4.304-11.313c3.326-4.04,8.143-6.759,13.768-6.759
		c5.625,0,10.457,2.719,13.781,6.759c2.564,3.108,4.305,6.961,4.305,11.313C434.695,45.268,426.584,53.347,416.609,53.347z"/>
	<path style="fill:#020202;" d="M193.785,451.328v-38.533H32.411V147.442c0-7.022,5.734-12.755,12.757-12.755h188.455
		c7.023,0,12.771,5.732,12.771,12.755v59.214h32.396v-59.214c0-24.922-20.262-45.167-45.168-45.167H45.168
		C20.246,102.275,0,122.52,0,147.442v281.635c0,24.923,20.246,45.169,45.168,45.169h155.313
		C197.078,468.791,193.785,461.556,193.785,451.328z M139.419,462.281c-5.531,0-10.286-2.625-13.612-6.525
		c-2.671-3.139-4.489-7.085-4.489-11.576c0-9.975,8.111-18.086,18.102-18.086c9.96,0,18.071,8.111,18.071,18.086
		c0,4.491-1.803,8.438-4.476,11.576C149.674,459.656,144.919,462.281,139.419,462.281z"/>
	<path style="fill:#020202;" d="M343.458,226.902H237.197c-12.756,0-23.152,10.379-23.152,23.151v201.274
		c0,12.756,10.396,23.136,23.152,23.136h106.261c12.757,0,23.151-10.38,23.151-23.136V250.053
		C366.609,237.281,356.215,226.902,343.458,226.902z M238.363,251.218h103.93v178.246h-103.93V251.218z M278.744,450.721
		c0-6.386,5.174-11.561,11.56-11.561c6.417,0,11.607,5.175,11.607,11.561c0,6.401-5.19,11.591-11.607,11.591
		C283.918,462.312,278.744,457.123,278.744,450.721z"/>
</g>
<g>
</g>
<g>
</g>
<g>
</g>
<g>
</g>
<g>
</g>
<g>
</g>
<g>
</g>
<g>
</g>
<g>
</g>
<g>
</g>
<g>
</g>
<g>
</g>
<g>
</g>
<g>
</g>
<g>
</g>
</svg>
