<?xml version="1.0" standalone="no"?>
<!DOCTYPE svg PUBLIC "-//W3C//DTD SVG 20010904//EN"
 "http://www.w3.org/TR/2001/REC-SVG-20010904/DTD/svg10.dtd">
<svg version="1.0" xmlns="http://www.w3.org/2000/svg"
 width="16.000000pt" height="16.000000pt" viewBox="0 0 16.000000 16.000000"
 preserveAspectRatio="xMidYMid meet">
<metadata>
Created by potrace 1.11, written by Peter Selinger 2001-2013
</metadata>
<g transform="translate(0.000000,16.000000) scale(0.002286,-0.002286)"
fill="#000000" stroke="none">
<path d="M3400 6854 c-96 -35 -194 -71 -350 -126 -47 -17 -94 -34 -105 -39
-11 -5 -29 -11 -40 -14 -15 -3 -611 -214 -685 -242 -8 -3 -19 -7 -25 -9 -5 -2
-116 -41 -245 -88 -429 -155 -944 -338 -1025 -366 -44 -15 -177 -62 -295 -104
-118 -43 -230 -83 -248 -89 l-34 -12 6 -70 c5 -62 12 -122 31 -275 2 -19 7
-60 10 -90 4 -30 8 -66 10 -80 2 -14 6 -52 10 -85 3 -33 10 -98 16 -145 5 -47
12 -105 15 -130 2 -25 7 -61 9 -80 3 -19 7 -53 9 -75 12 -99 16 -138 21 -180
3 -25 7 -65 10 -90 11 -102 16 -142 20 -175 3 -19 7 -60 10 -90 4 -30 8 -66
10 -80 2 -14 6 -54 10 -90 4 -36 8 -76 10 -90 2 -14 6 -45 9 -70 24 -221 35
-313 41 -350 2 -14 7 -55 10 -92 3 -37 7 -75 9 -85 3 -15 12 -94 21 -183 2
-24 21 -186 30 -260 2 -19 6 -53 9 -75 5 -40 14 -121 21 -185 7 -65 17 -145
20 -170 2 -14 6 -50 9 -80 3 -30 8 -71 10 -90 3 -19 7 -62 11 -95 4 -33 8 -71
10 -85 2 -14 6 -52 10 -85 3 -33 8 -71 10 -85 3 -14 7 -53 10 -88 4 -35 8 -73
11 -85 3 -19 15 -140 17 -174 0 -6 16 -20 36 -30 20 -11 61 -33 91 -50 157
-87 272 -151 380 -211 25 -13 108 -60 186 -103 77 -43 161 -89 185 -102 110
-59 169 -92 229 -127 36 -21 92 -52 125 -69 33 -18 67 -36 75 -41 12 -8 230
-129 505 -280 33 -18 83 -45 110 -60 28 -15 209 -116 404 -223 l353 -196 57
31 c31 17 90 50 131 73 41 23 102 57 135 75 83 45 90 49 620 343 259 143 495
274 525 290 30 17 111 62 180 100 69 38 154 86 190 105 36 19 119 65 185 102
134 75 150 84 422 233 105 58 200 111 211 118 15 10 21 33 31 123 7 61 14 122
16 136 2 14 6 54 10 90 4 36 8 76 10 90 2 14 6 48 9 75 3 28 12 109 21 180 37
319 58 510 80 700 9 77 18 157 20 178 6 44 12 95 19 157 3 25 10 83 15 130 6
47 13 112 16 145 4 33 8 71 10 85 2 14 6 50 10 80 8 82 12 116 24 210 6 47 13
112 16 145 3 33 8 74 10 92 3 17 9 73 15 125 6 51 12 109 15 128 2 19 7 60 10
90 4 30 8 66 10 80 2 14 9 70 15 125 12 107 18 159 25 215 2 19 7 64 11 100 3
36 7 72 9 80 1 8 6 47 9 85 4 39 9 81 11 95 2 14 7 54 10 90 4 36 9 72 10 80
2 8 6 48 10 88 4 40 10 97 14 128 4 30 4 57 0 59 -6 4 -324 118 -1479 530 -36
12 -267 95 -515 183 -247 88 -506 180 -575 205 -217 79 -581 207 -583 206 -1
0 -45 -16 -97 -35z"/>
</g>
</svg>
