<?xml version="1.0" encoding="UTF-8" standalone="no"?>
<!DOCTYPE svg PUBLIC "-//W3C//DTD SVG 1.1//EN"
 "http://www.w3.org/Graphics/SVG/1.1/DTD/svg11.dtd">
<!-- Generated by graphviz version 2.47.3 (20210619.1520)
 -->
<!-- Title: dependencies Pages: 1 -->
<svg width="442pt" height="247pt"
 viewBox="0.00 0.00 442.00 246.80" xmlns="http://www.w3.org/2000/svg" xmlns:xlink="http://www.w3.org/1999/xlink">
<g id="graph0" class="graph" transform="scale(1 1) rotate(0) translate(4 242.8)">
<title>dependencies</title>
<polygon fill="white" stroke="transparent" points="-4,4 -4,-242.8 438,-242.8 438,4 -4,4"/>
<text text-anchor="middle" x="217" y="-8.2" font-family="sans-serif" font-size="14.00">dependencies</text>
<g id="clust1" class="cluster">
<title>cluster_LightboxModule</title>
<polygon fill="none" stroke="black" stroke-dasharray="1,5" points="8,-32.8 8,-230.8 426,-230.8 426,-32.8 8,-32.8"/>
</g>
<g id="clust3" class="cluster">
<title>cluster_LightboxModule_imports</title>
<polygon fill="none" stroke="black" points="21,-40.8 21,-92.8 413,-92.8 413,-40.8 21,-40.8"/>
</g>
<g id="clust4" class="cluster">
<title>cluster_LightboxModule_exports</title>
<polygon fill="none" stroke="black" points="16,-170.8 16,-222.8 418,-222.8 418,-170.8 16,-170.8"/>
</g>
<!-- GallerizeDirective -->
<g id="node1" class="node">
<title>GallerizeDirective</title>
<polygon fill="#8dd3c7" stroke="black" points="404.88,-84.8 401.88,-88.8 380.88,-88.8 377.88,-84.8 285.12,-84.8 285.12,-48.8 404.88,-48.8 404.88,-84.8"/>
<text text-anchor="middle" x="345" y="-62.6" font-family="Times,serif" font-size="14.00">GallerizeDirective</text>
</g>
<!-- LightboxModule -->
<g id="node4" class="node">
<title>LightboxModule</title>
<polygon fill="#8dd3c7" stroke="black" points="272.38,-149.8 269.38,-153.8 248.38,-153.8 245.38,-149.8 161.62,-149.8 161.62,-113.8 272.38,-113.8 272.38,-149.8"/>
<text text-anchor="middle" x="217" y="-127.6" font-family="Times,serif" font-size="14.00">LightboxModule</text>
</g>
<!-- GallerizeDirective&#45;&gt;LightboxModule -->
<g id="edge1" class="edge">
<title>GallerizeDirective&#45;&gt;LightboxModule</title>
<path fill="none" stroke="black" d="M365.65,-84.82C365.65,-102.17 365.65,-125.8 365.65,-125.8 365.65,-125.8 282.77,-125.8 282.77,-125.8"/>
<polygon fill="black" stroke="black" points="282.77,-122.3 272.77,-125.8 282.77,-129.3 282.77,-122.3"/>
</g>
<!-- GalleryModule -->
<g id="node2" class="node">
<title>GalleryModule</title>
<polygon fill="#8dd3c7" stroke="black" points="267.53,-84.8 264.53,-88.8 243.53,-88.8 240.53,-84.8 166.47,-84.8 166.47,-48.8 267.53,-48.8 267.53,-84.8"/>
<text text-anchor="middle" x="217" y="-62.6" font-family="Times,serif" font-size="14.00">GalleryModule</text>
</g>
<!-- GalleryModule&#45;&gt;LightboxModule -->
<g id="edge2" class="edge">
<title>GalleryModule&#45;&gt;LightboxModule</title>
<path fill="none" stroke="black" d="M217,-84.91C217,-84.91 217,-103.79 217,-103.79"/>
<polygon fill="black" stroke="black" points="213.5,-103.79 217,-113.79 220.5,-103.79 213.5,-103.79"/>
</g>
<!-- LightboxDirective -->
<g id="node3" class="node">
<title>LightboxDirective</title>
<polygon fill="#8dd3c7" stroke="black" points="148.92,-84.8 145.92,-88.8 124.92,-88.8 121.92,-84.8 29.08,-84.8 29.08,-48.8 148.92,-48.8 148.92,-84.8"/>
<text text-anchor="middle" x="89" y="-62.6" font-family="Times,serif" font-size="14.00">LightboxDirective</text>
</g>
<!-- LightboxDirective&#45;&gt;LightboxModule -->
<g id="edge3" class="edge">
<title>LightboxDirective&#45;&gt;LightboxModule</title>
<path fill="none" stroke="black" d="M107.4,-84.82C107.4,-102.17 107.4,-125.8 107.4,-125.8 107.4,-125.8 151.56,-125.8 151.56,-125.8"/>
<polygon fill="black" stroke="black" points="151.56,-129.3 161.56,-125.8 151.56,-122.3 151.56,-129.3"/>
</g>
<!-- GallerizeDirective  -->
<g id="node5" class="node">
<title>GallerizeDirective </title>
<polygon fill="#fb8072" stroke="black" points="410.38,-214.8 287.62,-214.8 287.62,-178.8 410.38,-178.8 410.38,-214.8"/>
<text text-anchor="middle" x="349" y="-192.6" font-family="Times,serif" font-size="14.00">GallerizeDirective </text>
</g>
<!-- LightboxModule&#45;&gt;GallerizeDirective  -->
<g id="edge4" class="edge">
<title>LightboxModule&#45;&gt;GallerizeDirective </title>
<path fill="none" stroke="black" stroke-dasharray="5,2" d="M272.44,-137.8C299.63,-137.8 326.6,-137.8 326.6,-137.8 326.6,-137.8 326.6,-168.78 326.6,-168.78"/>
<polygon fill="black" stroke="black" points="323.1,-168.78 326.6,-178.78 330.1,-168.78 323.1,-168.78"/>
</g>
<!-- GalleryModule  -->
<g id="node6" class="node">
<title>GalleryModule </title>
<polygon fill="#fb8072" stroke="black" points="269.53,-214.8 164.47,-214.8 164.47,-178.8 269.53,-178.8 269.53,-214.8"/>
<text text-anchor="middle" x="217" y="-192.6" font-family="Times,serif" font-size="14.00">GalleryModule </text>
</g>
<!-- LightboxModule&#45;&gt;GalleryModule  -->
<g id="edge5" class="edge">
<title>LightboxModule&#45;&gt;GalleryModule </title>
<path fill="none" stroke="black" stroke-dasharray="5,2" d="M217,-149.91C217,-149.91 217,-168.79 217,-168.79"/>
<polygon fill="black" stroke="black" points="213.5,-168.79 217,-178.79 220.5,-168.79 213.5,-168.79"/>
</g>
<!-- LightboxDirective  -->
<g id="node7" class="node">
<title>LightboxDirective </title>
<polygon fill="#fb8072" stroke="black" points="146.42,-214.8 23.58,-214.8 23.58,-178.8 146.42,-178.8 146.42,-214.8"/>
<text text-anchor="middle" x="85" y="-192.6" font-family="Times,serif" font-size="14.00">LightboxDirective </text>
</g>
<!-- LightboxModule&#45;&gt;LightboxDirective  -->
<g id="edge6" class="edge">
<title>LightboxModule&#45;&gt;LightboxDirective </title>
<path fill="none" stroke="black" stroke-dasharray="5,2" d="M161.22,-137.8C119.04,-137.8 68.35,-137.8 68.35,-137.8 68.35,-137.8 68.35,-168.78 68.35,-168.78"/>
<polygon fill="black" stroke="black" points="64.85,-168.78 68.35,-178.78 71.85,-168.78 64.85,-168.78"/>
</g>
</g>
</svg>
