<?xml version="1.0" standalone="no"?>
<!DOCTYPE svg PUBLIC "-//W3C//DTD SVG 20010904//EN"
 "http://www.w3.org/TR/2001/REC-SVG-20010904/DTD/svg10.dtd">
<svg version="1.0" xmlns="http://www.w3.org/2000/svg"
 width="268.000000pt" height="268.000000pt" viewBox="0 0 268.000000 268.000000"
 preserveAspectRatio="xMidYMid meet">
<metadata>
Created by potrace 1.11, written by Peter Selinger 2001-2013
</metadata>
<g transform="translate(0.000000,268.000000) scale(0.100000,-0.100000)"
fill="#000000" stroke="none">
<path d="M1085 2589 c-137 -49 -306 -109 -375 -133 -69 -25 -188 -67 -265 -94
-77 -28 -189 -68 -248 -89 l-109 -38 6 -40 c3 -22 8 -67 11 -100 4 -33 8 -71
11 -85 2 -14 6 -47 9 -75 6 -55 13 -122 20 -175 3 -19 7 -60 10 -90 3 -30 7
-64 9 -75 2 -12 7 -52 10 -90 4 -39 8 -81 11 -95 2 -14 7 -54 11 -90 3 -36 8
-73 9 -82 2 -9 6 -45 9 -80 4 -35 8 -79 11 -98 2 -19 7 -57 10 -85 3 -27 8
-63 10 -80 2 -16 7 -55 10 -85 3 -30 8 -71 10 -90 2 -19 7 -57 11 -85 3 -30
12 -54 22 -60 9 -5 50 -28 92 -51 41 -22 163 -90 270 -149 333 -185 453 -251
515 -285 33 -18 84 -46 112 -62 l53 -29 447 246 c615 339 613 338 614 344 1 3
2 17 4 31 5 50 16 146 20 170 2 14 6 50 9 80 3 30 8 71 10 90 2 19 7 62 11 95
6 61 10 91 19 155 3 20 8 63 11 95 3 33 8 74 10 90 2 17 7 62 11 100 3 39 8
78 10 88 2 10 6 44 9 75 3 31 8 71 10 87 2 17 7 59 10 95 4 36 8 76 10 90 2
14 7 48 10 75 3 28 8 66 10 85 17 135 17 138 -4 150 -12 6 -51 21 -88 34 -58
20 -443 157 -1006 357 -75 27 -138 49 -140 48 -1 0 -114 -40 -252 -90z"/>
</g>
</svg>
