<?xml version="1.0" encoding="utf-8"?>
<!-- Generator: Adobe Illustrator 18.0.0, SVG Export Plug-In . SVG Version: 6.00 Build 0)  -->
<!DOCTYPE svg PUBLIC "-//W3C//DTD SVG 1.1//EN" "http://www.w3.org/Graphics/SVG/1.1/DTD/svg11.dtd">
<svg version="1.1" id="Layer_1" xmlns="http://www.w3.org/2000/svg" xmlns:xlink="http://www.w3.org/1999/xlink" x="0px" y="0px"
	 viewBox="0 0 300 300" enable-background="new 0 0 300 300" xml:space="preserve">
<polygon fill="#795649" points="150,4.8 150,4.8 150,4.8 14.8,53 35.4,231.8 150,295.2 150,295.2 150,295.2 264.6,231.8 285.2,53 
	"/>
<polygon fill="#5D4137" points="150,4.8 150,37 150,36.9 150,184 150,184 150,295.2 150,295.2 264.6,231.8 285.2,53 "/>
<g>
</g>
<g>
	<path fill="#FFFFFF" d="M249,106.8L145,57.1c-1.2-0.6-2.7-0.1-3.2,1.1l-22.6,47.4h12.3l16.6-34.8l90.2,43.1l-28.2,59l-15.9-7.6
		v31.2l9.8,4.7c1.2,0.6,2.7,0.1,3.2-1.1l43-90C250.7,108.8,250.2,107.4,249,106.8z"/>
	<path fill="#FFFFFF" d="M184.5,111.3H69.2c-1.3,0-2.4,1.1-2.4,2.4v99.8c0,1.3,1.1,2.4,2.4,2.4h115.3c1.3,0,2.4-1.1,2.4-2.4v-99.8
		C187,112.4,185.9,111.3,184.5,111.3z M177.9,187.8h-7.3c-4.3-10.9-9.5-26.2-17.4-24.1c-9.3,2.4-14,24.1-14,24.1
		s-4.8-24.6-17.9-37.7c-13.2-13.2-25.9,37.7-25.9,37.7H77.9v-65.4h99.9V187.8z"/>
	<circle fill="#FFFFFF" cx="94.1" cy="136.4" r="8.2"/>
	<path fill="#FFFFFF" d="M148.8,142.2c1.8,0,3.5-0.2,5.1-0.5c1.8,0.8,3.9,1.2,6.3,1.2c6,0,10.9-2.9,10.9-6.6c0-3.6-4.9-6.6-10.9-6.6
		c-2.3,0-4.3,0.4-6.1,1.1c-0.7-0.7-1.7-1.1-2.7-1.1h-1.6c-2,0-3.6,1.5-3.8,3.5c-4.9,0.5-8.5,2.3-8.5,4.4
		C137.4,140.1,142.5,142.2,148.8,142.2z"/>
</g>
<g>
</g>
<g>
</g>
<g>
</g>
<g>
</g>
<g>
</g>
<g>
</g>
</svg>
