<?xml version="1.0" encoding="utf-8"?>
<!-- Generator: Adobe Illustrator 18.0.0, SVG Export Plug-In . SVG Version: 6.00 Build 0)  -->
<!DOCTYPE svg PUBLIC "-//W3C//DTD SVG 1.1//EN" "http://www.w3.org/Graphics/SVG/1.1/DTD/svg11.dtd">
<svg version="1.1" id="Layer_1" xmlns="http://www.w3.org/2000/svg" xmlns:xlink="http://www.w3.org/1999/xlink" x="0px" y="0px"
	 viewBox="0 0 300 300" enable-background="new 0 0 300 300" xml:space="preserve">
<polygon fill="#9B26AF" points="150,4.8 150,4.8 150,4.8 14.8,53 35.4,231.8 150,295.2 150,295.2 150,295.2 264.6,231.8 285.2,53 
	"/>
<polygon fill="#7A1EA1" points="150,4.8 150,37 150,36.9 150,184 150,184 150,295.2 150,295.2 264.6,231.8 285.2,53 "/>
<g>
	<path fill="#FFFFFF" d="M219,76.6l-2.1,15.5c-4.3-0.8-8.5-1.4-12.8-1.8c-4.2-0.4-8.4-0.6-12.4-0.6c-5.1,0-10.3,0.3-15.6,1
		c-5.2,0.7-10.5,1.6-15.8,2.8l9.3,144.5l-44.2-5.8l10.9-137.6l-6.6,0.1c-7.1,0.1-13.3-0.2-18.7-1c-5.4-0.8-9.8-2.1-13.3-3.8
		c-4.9-2.5-8.5-5.9-10.9-10.3c-2.4-4.4-3.6-9.8-3.6-16.2v-2.4l6.5-2.2c0.3,7.3,3,12.8,8.3,16.4c5.2,3.6,12.9,5.4,23,5.4
		c8.5,0,21.2-1.3,38-3.8c16.8-2.5,29.5-3.8,38-3.8c4.5,0,8.6,0.3,12.3,0.9C213.1,74.6,216.3,75.5,219,76.6z M156.3,166.9
		c0-2.4-0.9-4.5-2.6-6.3c-1.7-1.8-3.8-2.7-6.3-2.7s-4.6,0.9-6.3,2.7c-1.8,1.8-2.6,3.9-2.6,6.3c0,2.5,0.9,4.7,2.6,6.4
		s3.9,2.6,6.3,2.6s4.6-0.9,6.3-2.6S156.3,169.5,156.3,166.9z M154.1,197.6c0-2.3-0.6-4-1.7-5.2s-2.9-1.8-5.2-1.8s-4.1,0.6-5.3,1.8
		s-1.8,2.9-1.8,5.2c0,2.3,0.6,4.1,1.8,5.2c1.2,1.1,3,1.7,5.3,1.7s4.1-0.6,5.2-1.7C153.5,201.7,154.1,199.9,154.1,197.6z
		 M154.6,137.8c0-2.3-0.6-4.1-1.7-5.3s-2.9-1.8-5.2-1.8s-4.1,0.6-5.3,1.8s-1.8,2.9-1.8,5.3c0,2.4,0.6,4.2,1.8,5.3
		c1.2,1.1,3,1.7,5.3,1.7s4.1-0.6,5.2-1.7C154,142,154.6,140.2,154.6,137.8z"/>
</g>
</svg>
