<?xml version="1.0" encoding="utf-8"?>
<!-- Generator: Adobe Illustrator 18.0.0, SVG Export Plug-In . SVG Version: 6.00 Build 0)  -->
<!DOCTYPE svg PUBLIC "-//W3C//DTD SVG 1.1//EN" "http://www.w3.org/Graphics/SVG/1.1/DTD/svg11.dtd">
<svg version="1.1" id="Layer_1" xmlns="http://www.w3.org/2000/svg" xmlns:xlink="http://www.w3.org/1999/xlink" x="0px" y="0px"
	 viewBox="30.2 99.8 551.6 592.4" enable-background="new 30.2 99.8 551.6 592.4" xml:space="preserve">
<polygon fill="#607D8B" points="306,99.8 306,99.8 306,99.8 30.2,198.1 72.2,562.9 306,692.2 306,692.2 306,692.2 539.8,562.9
	581.8,198.1 "/>
<polygon fill="#516972" points="306,99.8 306,165.5 306,165.3 306,465.4 306,465.4 306,692.2 306,692.2 539.8,562.9 581.8,198.1 "/>
<g class="shadow">
	<path fill="#FFFFFF" d="M508,307.9L295.8,206.5c-2.4-1.2-5.5-0.2-6.5,2.2l-46.1,96.7h25.1l33.9-71l184,87.9l-57.5,120.4l-32.4-15.5
		v63.6l20,9.6c2.4,1.2,5.5,0.2,6.5-2.2l87.7-183.6C511.4,312,510.4,309.1,508,307.9z"/>
	<path fill="#FFFFFF" d="M376.4,317.1H141.2c-2.7,0-4.9,2.2-4.9,4.9v203.6c0,2.7,2.2,4.9,4.9,4.9h235.2c2.7,0,4.9-2.2,4.9-4.9V321.9
		C381.5,319.3,379.2,317.1,376.4,317.1z M362.9,473.1H348c-8.8-22.2-19.4-53.4-35.5-49.2c-19,4.9-28.6,49.2-28.6,49.2
		s-9.8-50.2-36.5-76.9c-26.9-26.9-52.8,76.9-52.8,76.9h-35.7V339.7h203.8v133.4H362.9z"/>
	<circle fill="#FFFFFF" cx="192" cy="368.3" r="16.7"/>
	<path fill="#FFFFFF" d="M303.6,380.1c3.7,0,7.1-0.4,10.4-1c3.7,1.6,8,2.4,12.9,2.4c12.2,0,22.2-5.9,22.2-13.5
		c0-7.3-10-13.5-22.2-13.5c-4.7,0-8.8,0.8-12.4,2.2c-1.4-1.4-3.5-2.2-5.5-2.2h-3.3c-4.1,0-7.3,3.1-7.8,7.1c-10,1-17.3,4.7-17.3,9
		C280.3,375.8,290.7,380.1,303.6,380.1z"/>
</g>
</svg>
