<?xml version="1.0" encoding="UTF-8" standalone="no"?>
<!DOCTYPE svg PUBLIC "-//W3C//DTD SVG 1.1//EN"
 "http://www.w3.org/Graphics/SVG/1.1/DTD/svg11.dtd">
<!-- Generated by graphviz version 2.47.3 (20210619.1520)
 -->
<!-- Title: dependencies Pages: 1 -->
<svg width="709pt" height="247pt"
 viewBox="0.00 0.00 709.00 246.80" xmlns="http://www.w3.org/2000/svg" xmlns:xlink="http://www.w3.org/1999/xlink">
<g id="graph0" class="graph" transform="scale(1 1) rotate(0) translate(4 242.8)">
<title>dependencies</title>
<polygon fill="white" stroke="transparent" points="-4,4 -4,-242.8 705,-242.8 705,4 -4,4"/>
<text text-anchor="middle" x="350.5" y="-8.2" font-family="sans-serif" font-size="14.00">dependencies</text>
<g id="clust1" class="cluster">
<title>cluster_GalleryModule</title>
<polygon fill="none" stroke="black" stroke-dasharray="1,5" points="8,-32.8 8,-230.8 693,-230.8 693,-32.8 8,-32.8"/>
</g>
<g id="clust4" class="cluster">
<title>cluster_GalleryModule_exports</title>
<polygon fill="none" stroke="black" points="16,-170.8 16,-222.8 685,-222.8 685,-170.8 16,-170.8"/>
</g>
<g id="clust3" class="cluster">
<title>cluster_GalleryModule_imports</title>
<polygon fill="none" stroke="black" points="25,-40.8 25,-92.8 677,-92.8 677,-40.8 25,-40.8"/>
</g>
<!-- GalleryBoxDef -->
<g id="node1" class="node">
<title>GalleryBoxDef</title>
<polygon fill="#8dd3c7" stroke="black" points="669.3,-84.8 666.3,-88.8 645.3,-88.8 642.3,-84.8 566.7,-84.8 566.7,-48.8 669.3,-48.8 669.3,-84.8"/>
<text text-anchor="middle" x="618" y="-62.6" font-family="Times,serif" font-size="14.00">GalleryBoxDef</text>
</g>
<!-- GalleryModule -->
<g id="node6" class="node">
<title>GalleryModule</title>
<polygon fill="#8dd3c7" stroke="black" points="400.53,-149.8 397.53,-153.8 376.53,-153.8 373.53,-149.8 299.47,-149.8 299.47,-113.8 400.53,-113.8 400.53,-149.8"/>
<text text-anchor="middle" x="350" y="-127.6" font-family="Times,serif" font-size="14.00">GalleryModule</text>
</g>
<!-- GalleryBoxDef&#45;&gt;GalleryModule -->
<g id="edge1" class="edge">
<title>GalleryBoxDef&#45;&gt;GalleryModule</title>
<path fill="none" stroke="black" d="M636.47,-85.07C636.47,-103.36 636.47,-128.8 636.47,-128.8 636.47,-128.8 410.55,-128.8 410.55,-128.8"/>
<polygon fill="black" stroke="black" points="410.55,-125.3 400.55,-128.8 410.55,-132.3 410.55,-125.3"/>
</g>
<!-- GalleryComponent -->
<g id="node2" class="node">
<title>GalleryComponent</title>
<polygon fill="#8dd3c7" stroke="black" points="548.81,-84.8 545.81,-88.8 524.81,-88.8 521.81,-84.8 425.19,-84.8 425.19,-48.8 548.81,-48.8 548.81,-84.8"/>
<text text-anchor="middle" x="487" y="-62.6" font-family="Times,serif" font-size="14.00">GalleryComponent</text>
</g>
<!-- GalleryComponent&#45;&gt;GalleryModule -->
<g id="edge2" class="edge">
<title>GalleryComponent&#45;&gt;GalleryModule</title>
<path fill="none" stroke="black" d="M507.97,-84.81C507.97,-100.85 507.97,-121.8 507.97,-121.8 507.97,-121.8 410.85,-121.8 410.85,-121.8"/>
<polygon fill="black" stroke="black" points="410.85,-118.3 400.85,-121.8 410.85,-125.3 410.85,-118.3"/>
</g>
<!-- GalleryImageDef -->
<g id="node3" class="node">
<title>GalleryImageDef</title>
<polygon fill="#8dd3c7" stroke="black" points="406.94,-84.8 403.94,-88.8 382.94,-88.8 379.94,-84.8 293.06,-84.8 293.06,-48.8 406.94,-48.8 406.94,-84.8"/>
<text text-anchor="middle" x="350" y="-62.6" font-family="Times,serif" font-size="14.00">GalleryImageDef</text>
</g>
<!-- GalleryImageDef&#45;&gt;GalleryModule -->
<g id="edge3" class="edge">
<title>GalleryImageDef&#45;&gt;GalleryModule</title>
<path fill="none" stroke="black" d="M350,-84.91C350,-84.91 350,-103.79 350,-103.79"/>
<polygon fill="black" stroke="black" points="346.5,-103.79 350,-113.79 353.5,-103.79 346.5,-103.79"/>
</g>
<!-- GalleryItemDef -->
<g id="node4" class="node">
<title>GalleryItemDef</title>
<polygon fill="#8dd3c7" stroke="black" points="275.12,-84.8 272.12,-88.8 251.12,-88.8 248.12,-84.8 170.88,-84.8 170.88,-48.8 275.12,-48.8 275.12,-84.8"/>
<text text-anchor="middle" x="223" y="-62.6" font-family="Times,serif" font-size="14.00">GalleryItemDef</text>
</g>
<!-- GalleryItemDef&#45;&gt;GalleryModule -->
<g id="edge4" class="edge">
<title>GalleryItemDef&#45;&gt;GalleryModule</title>
<path fill="none" stroke="black" d="M238.94,-84.81C238.94,-100.85 238.94,-121.8 238.94,-121.8 238.94,-121.8 289.34,-121.8 289.34,-121.8"/>
<polygon fill="black" stroke="black" points="289.34,-125.3 299.34,-121.8 289.34,-118.3 289.34,-125.3"/>
</g>
<!-- GalleryThumbDef -->
<g id="node5" class="node">
<title>GalleryThumbDef</title>
<polygon fill="#8dd3c7" stroke="black" points="152.9,-84.8 149.9,-88.8 128.9,-88.8 125.9,-84.8 33.1,-84.8 33.1,-48.8 152.9,-48.8 152.9,-84.8"/>
<text text-anchor="middle" x="93" y="-62.6" font-family="Times,serif" font-size="14.00">GalleryThumbDef</text>
</g>
<!-- GalleryThumbDef&#45;&gt;GalleryModule -->
<g id="edge5" class="edge">
<title>GalleryThumbDef&#45;&gt;GalleryModule</title>
<path fill="none" stroke="black" d="M108.73,-85.07C108.73,-103.36 108.73,-128.8 108.73,-128.8 108.73,-128.8 289.42,-128.8 289.42,-128.8"/>
<polygon fill="black" stroke="black" points="289.42,-132.3 299.42,-128.8 289.42,-125.3 289.42,-132.3"/>
</g>
<!-- GalleryBoxDef  -->
<g id="node7" class="node">
<title>GalleryBoxDef </title>
<polygon fill="#fb8072" stroke="black" points="676.8,-214.8 571.2,-214.8 571.2,-178.8 676.8,-178.8 676.8,-214.8"/>
<text text-anchor="middle" x="624" y="-192.6" font-family="Times,serif" font-size="14.00">GalleryBoxDef </text>
</g>
<!-- GalleryModule&#45;&gt;GalleryBoxDef  -->
<g id="edge6" class="edge">
<title>GalleryModule&#45;&gt;GalleryBoxDef </title>
<path fill="none" stroke="black" stroke-dasharray="5,2" d="M400.75,-135.8C474.81,-135.8 603.78,-135.8 603.78,-135.8 603.78,-135.8 603.78,-168.5 603.78,-168.5"/>
<polygon fill="black" stroke="black" points="600.28,-168.5 603.78,-178.5 607.28,-168.5 600.28,-168.5"/>
</g>
<!-- GalleryComponent  -->
<g id="node8" class="node">
<title>GalleryComponent </title>
<polygon fill="#fb8072" stroke="black" points="553.31,-214.8 426.69,-214.8 426.69,-178.8 553.31,-178.8 553.31,-214.8"/>
<text text-anchor="middle" x="490" y="-192.6" font-family="Times,serif" font-size="14.00">GalleryComponent </text>
</g>
<!-- GalleryModule&#45;&gt;GalleryComponent  -->
<g id="edge7" class="edge">
<title>GalleryModule&#45;&gt;GalleryComponent </title>
<path fill="none" stroke="black" stroke-dasharray="5,2" d="M400.76,-142.8C432.46,-142.8 467.28,-142.8 467.28,-142.8 467.28,-142.8 467.28,-168.52 467.28,-168.52"/>
<polygon fill="black" stroke="black" points="463.78,-168.52 467.28,-178.52 470.78,-168.52 463.78,-168.52"/>
</g>
<!-- GalleryImageDef  -->
<g id="node9" class="node">
<title>GalleryImageDef </title>
<polygon fill="#fb8072" stroke="black" points="408.94,-214.8 291.06,-214.8 291.06,-178.8 408.94,-178.8 408.94,-214.8"/>
<text text-anchor="middle" x="350" y="-192.6" font-family="Times,serif" font-size="14.00">GalleryImageDef </text>
</g>
<!-- GalleryModule&#45;&gt;GalleryImageDef  -->
<g id="edge8" class="edge">
<title>GalleryModule&#45;&gt;GalleryImageDef </title>
<path fill="none" stroke="black" stroke-dasharray="5,2" d="M350,-149.91C350,-149.91 350,-168.79 350,-168.79"/>
<polygon fill="black" stroke="black" points="346.5,-168.79 350,-178.79 353.5,-168.79 346.5,-168.79"/>
</g>
<!-- GalleryItemDef  -->
<g id="node10" class="node">
<title>GalleryItemDef </title>
<polygon fill="#fb8072" stroke="black" points="273.12,-214.8 164.88,-214.8 164.88,-178.8 273.12,-178.8 273.12,-214.8"/>
<text text-anchor="middle" x="219" y="-192.6" font-family="Times,serif" font-size="14.00">GalleryItemDef </text>
</g>
<!-- GalleryModule&#45;&gt;GalleryItemDef  -->
<g id="edge9" class="edge">
<title>GalleryModule&#45;&gt;GalleryItemDef </title>
<path fill="none" stroke="black" stroke-dasharray="5,2" d="M299.22,-142.8C257.35,-142.8 204.81,-142.8 204.81,-142.8 204.81,-142.8 204.81,-168.52 204.81,-168.52"/>
<polygon fill="black" stroke="black" points="201.31,-168.52 204.81,-178.52 208.31,-168.52 201.31,-168.52"/>
</g>
<!-- GalleryThumbDef  -->
<g id="node11" class="node">
<title>GalleryThumbDef </title>
<polygon fill="#fb8072" stroke="black" points="146.4,-214.8 23.6,-214.8 23.6,-178.8 146.4,-178.8 146.4,-214.8"/>
<text text-anchor="middle" x="85" y="-192.6" font-family="Times,serif" font-size="14.00">GalleryThumbDef </text>
</g>
<!-- GalleryModule&#45;&gt;GalleryThumbDef  -->
<g id="edge10" class="edge">
<title>GalleryModule&#45;&gt;GalleryThumbDef </title>
<path fill="none" stroke="black" stroke-dasharray="5,2" d="M299.15,-135.8C218.69,-135.8 71.02,-135.8 71.02,-135.8 71.02,-135.8 71.02,-168.5 71.02,-168.5"/>
<polygon fill="black" stroke="black" points="67.52,-168.5 71.02,-178.5 74.52,-168.5 67.52,-168.5"/>
</g>
</g>
</svg>
