<?xml version="1.0" encoding="UTF-8" standalone="no"?>
<!DOCTYPE svg PUBLIC "-//W3C//DTD SVG 1.1//EN"
 "http://www.w3.org/Graphics/SVG/1.1/DTD/svg11.dtd">
<!-- Generated by graphviz version 2.47.3 (20210619.1520)
 -->
<!-- Title: dependencies Pages: 1 -->
<svg width="1135pt" height="318pt"
 viewBox="0.00 0.00 1135.00 317.80" xmlns="http://www.w3.org/2000/svg" xmlns:xlink="http://www.w3.org/1999/xlink">
<g id="graph0" class="graph" transform="scale(1 1) rotate(0) translate(4 313.8)">
<title>dependencies</title>
<polygon fill="white" stroke="transparent" points="-4,4 -4,-313.8 1131,-313.8 1131,4 -4,4"/>
<text text-anchor="middle" x="563.5" y="-8.2" font-family="sans-serif" font-size="14.00">dependencies</text>
<g id="clust1" class="cluster">
<title>cluster_GalleryModule</title>
<polygon fill="none" stroke="black" stroke-dasharray="1,5" points="8,-32.8 8,-233.8 693,-233.8 693,-32.8 8,-32.8"/>
</g>
<g id="clust3" class="cluster">
<title>cluster_GalleryModule_imports</title>
<polygon fill="none" stroke="black" points="29,-40.8 29,-92.8 681,-92.8 681,-40.8 29,-40.8"/>
</g>
<g id="clust4" class="cluster">
<title>cluster_GalleryModule_exports</title>
<polygon fill="none" stroke="black" points="16,-173.8 16,-225.8 685,-225.8 685,-173.8 16,-173.8"/>
</g>
<g id="clust7" class="cluster">
<title>cluster_LightboxModule</title>
<polygon fill="none" stroke="black" stroke-dasharray="1,5" points="701,-100.8 701,-301.8 1119,-301.8 1119,-100.8 701,-100.8"/>
</g>
<g id="clust9" class="cluster">
<title>cluster_LightboxModule_imports</title>
<polygon fill="none" stroke="black" points="774,-108.8 774,-160.8 1047,-160.8 1047,-108.8 774,-108.8"/>
</g>
<g id="clust10" class="cluster">
<title>cluster_LightboxModule_exports</title>
<polygon fill="none" stroke="black" points="709,-241.8 709,-293.8 1111,-293.8 1111,-241.8 709,-241.8"/>
</g>
<!-- GalleryBoxDef -->
<g id="node1" class="node">
<title>GalleryBoxDef</title>
<polygon fill="#8dd3c7" stroke="black" points="673.3,-84.8 670.3,-88.8 649.3,-88.8 646.3,-84.8 570.7,-84.8 570.7,-48.8 673.3,-48.8 673.3,-84.8"/>
<text text-anchor="middle" x="622" y="-62.6" font-family="Times,serif" font-size="14.00">GalleryBoxDef</text>
</g>
<!-- GalleryModule -->
<g id="node6" class="node">
<title>GalleryModule</title>
<polygon fill="#8dd3c7" stroke="black" points="404.53,-152.8 401.53,-156.8 380.53,-156.8 377.53,-152.8 303.47,-152.8 303.47,-116.8 404.53,-116.8 404.53,-152.8"/>
<text text-anchor="middle" x="354" y="-130.6" font-family="Times,serif" font-size="14.00">GalleryModule</text>
</g>
<!-- GalleryBoxDef&#45;&gt;GalleryModule -->
<g id="edge1" class="edge">
<title>GalleryBoxDef&#45;&gt;GalleryModule</title>
<path fill="none" stroke="black" d="M639.13,-85.07C639.13,-103.36 639.13,-128.8 639.13,-128.8 639.13,-128.8 414.65,-128.8 414.65,-128.8"/>
<polygon fill="black" stroke="black" points="414.65,-125.3 404.65,-128.8 414.65,-132.3 414.65,-125.3"/>
</g>
<!-- GalleryComponent -->
<g id="node2" class="node">
<title>GalleryComponent</title>
<polygon fill="#8dd3c7" stroke="black" points="552.81,-84.8 549.81,-88.8 528.81,-88.8 525.81,-84.8 429.19,-84.8 429.19,-48.8 552.81,-48.8 552.81,-84.8"/>
<text text-anchor="middle" x="491" y="-62.6" font-family="Times,serif" font-size="14.00">GalleryComponent</text>
</g>
<!-- GalleryComponent&#45;&gt;GalleryModule -->
<g id="edge2" class="edge">
<title>GalleryComponent&#45;&gt;GalleryModule</title>
<path fill="none" stroke="black" d="M470.45,-84.83C470.45,-101.2 470.45,-122.8 470.45,-122.8 470.45,-122.8 414.74,-122.8 414.74,-122.8"/>
<polygon fill="black" stroke="black" points="414.74,-119.3 404.74,-122.8 414.74,-126.3 414.74,-119.3"/>
</g>
<!-- GalleryImageDef -->
<g id="node3" class="node">
<title>GalleryImageDef</title>
<polygon fill="#8dd3c7" stroke="black" points="410.94,-84.8 407.94,-88.8 386.94,-88.8 383.94,-84.8 297.06,-84.8 297.06,-48.8 410.94,-48.8 410.94,-84.8"/>
<text text-anchor="middle" x="354" y="-62.6" font-family="Times,serif" font-size="14.00">GalleryImageDef</text>
</g>
<!-- GalleryImageDef&#45;&gt;GalleryModule -->
<g id="edge3" class="edge">
<title>GalleryImageDef&#45;&gt;GalleryModule</title>
<path fill="none" stroke="black" d="M354,-85.02C354,-85.02 354,-106.53 354,-106.53"/>
<polygon fill="black" stroke="black" points="350.5,-106.53 354,-116.53 357.5,-106.53 350.5,-106.53"/>
</g>
<!-- GalleryItemDef -->
<g id="node4" class="node">
<title>GalleryItemDef</title>
<polygon fill="#8dd3c7" stroke="black" points="279.12,-84.8 276.12,-88.8 255.12,-88.8 252.12,-84.8 174.88,-84.8 174.88,-48.8 279.12,-48.8 279.12,-84.8"/>
<text text-anchor="middle" x="227" y="-62.6" font-family="Times,serif" font-size="14.00">GalleryItemDef</text>
</g>
<!-- GalleryItemDef&#45;&gt;GalleryModule -->
<g id="edge4" class="edge">
<title>GalleryItemDef&#45;&gt;GalleryModule</title>
<path fill="none" stroke="black" d="M240.27,-84.83C240.27,-101.86 240.27,-124.8 240.27,-124.8 240.27,-124.8 293.45,-124.8 293.45,-124.8"/>
<polygon fill="black" stroke="black" points="293.45,-128.3 303.45,-124.8 293.45,-121.3 293.45,-128.3"/>
</g>
<!-- GalleryThumbDef -->
<g id="node5" class="node">
<title>GalleryThumbDef</title>
<polygon fill="#8dd3c7" stroke="black" points="156.9,-84.8 153.9,-88.8 132.9,-88.8 129.9,-84.8 37.1,-84.8 37.1,-48.8 156.9,-48.8 156.9,-84.8"/>
<text text-anchor="middle" x="97" y="-62.6" font-family="Times,serif" font-size="14.00">GalleryThumbDef</text>
</g>
<!-- GalleryThumbDef&#45;&gt;GalleryModule -->
<g id="edge5" class="edge">
<title>GalleryThumbDef&#45;&gt;GalleryModule</title>
<path fill="none" stroke="black" d="M151.58,-84.91C151.58,-104.14 151.58,-131.8 151.58,-131.8 151.58,-131.8 293.44,-131.8 293.44,-131.8"/>
<polygon fill="black" stroke="black" points="293.44,-135.3 303.44,-131.8 293.44,-128.3 293.44,-135.3"/>
</g>
<!-- GalleryBoxDef  -->
<g id="node7" class="node">
<title>GalleryBoxDef </title>
<polygon fill="#fb8072" stroke="black" points="676.8,-217.8 571.2,-217.8 571.2,-181.8 676.8,-181.8 676.8,-217.8"/>
<text text-anchor="middle" x="624" y="-195.6" font-family="Times,serif" font-size="14.00">GalleryBoxDef </text>
</g>
<!-- GalleryModule&#45;&gt;GalleryBoxDef  -->
<g id="edge6" class="edge">
<title>GalleryModule&#45;&gt;GalleryBoxDef </title>
<path fill="none" stroke="black" stroke-dasharray="5,2" d="M404.82,-140.8C478.19,-140.8 605.12,-140.8 605.12,-140.8 605.12,-140.8 605.12,-171.78 605.12,-171.78"/>
<polygon fill="black" stroke="black" points="601.62,-171.78 605.12,-181.78 608.62,-171.78 601.62,-171.78"/>
</g>
<!-- GalleryComponent  -->
<g id="node8" class="node">
<title>GalleryComponent </title>
<polygon fill="#fb8072" stroke="black" points="553.31,-217.8 426.69,-217.8 426.69,-181.8 553.31,-181.8 553.31,-217.8"/>
<text text-anchor="middle" x="490" y="-195.6" font-family="Times,serif" font-size="14.00">GalleryComponent </text>
</g>
<!-- GalleryModule&#45;&gt;GalleryComponent  -->
<g id="edge7" class="edge">
<title>GalleryModule&#45;&gt;GalleryComponent </title>
<path fill="none" stroke="black" stroke-dasharray="5,2" d="M404.72,-146.8C450.77,-146.8 511.55,-146.8 511.55,-146.8 511.55,-146.8 511.55,-171.56 511.55,-171.56"/>
<polygon fill="black" stroke="black" points="508.05,-171.56 511.55,-181.56 515.05,-171.56 508.05,-171.56"/>
</g>
<!-- GalleryImageDef  -->
<g id="node9" class="node">
<title>GalleryImageDef </title>
<polygon fill="#fb8072" stroke="black" points="408.94,-217.8 291.06,-217.8 291.06,-181.8 408.94,-181.8 408.94,-217.8"/>
<text text-anchor="middle" x="350" y="-195.6" font-family="Times,serif" font-size="14.00">GalleryImageDef </text>
</g>
<!-- GalleryModule&#45;&gt;GalleryImageDef  -->
<g id="edge8" class="edge">
<title>GalleryModule&#45;&gt;GalleryImageDef </title>
<path fill="none" stroke="black" stroke-dasharray="5,2" d="M354,-152.91C354,-152.91 354,-171.79 354,-171.79"/>
<polygon fill="black" stroke="black" points="350.5,-171.79 354,-181.79 357.5,-171.79 350.5,-171.79"/>
</g>
<!-- GalleryItemDef  -->
<g id="node10" class="node">
<title>GalleryItemDef </title>
<polygon fill="#fb8072" stroke="black" points="273.12,-217.8 164.88,-217.8 164.88,-181.8 273.12,-181.8 273.12,-217.8"/>
<text text-anchor="middle" x="219" y="-195.6" font-family="Times,serif" font-size="14.00">GalleryItemDef </text>
</g>
<!-- GalleryModule&#45;&gt;GalleryItemDef  -->
<g id="edge9" class="edge">
<title>GalleryModule&#45;&gt;GalleryItemDef </title>
<path fill="none" stroke="black" stroke-dasharray="5,2" d="M303.17,-145.8C260.85,-145.8 207.48,-145.8 207.48,-145.8 207.48,-145.8 207.48,-171.52 207.48,-171.52"/>
<polygon fill="black" stroke="black" points="203.98,-171.52 207.48,-181.52 210.98,-171.52 203.98,-171.52"/>
</g>
<!-- GalleryThumbDef  -->
<g id="node11" class="node">
<title>GalleryThumbDef </title>
<polygon fill="#fb8072" stroke="black" points="146.4,-217.8 23.6,-217.8 23.6,-181.8 146.4,-181.8 146.4,-217.8"/>
<text text-anchor="middle" x="85" y="-195.6" font-family="Times,serif" font-size="14.00">GalleryThumbDef </text>
</g>
<!-- GalleryModule&#45;&gt;GalleryThumbDef  -->
<g id="edge10" class="edge">
<title>GalleryModule&#45;&gt;GalleryThumbDef </title>
<path fill="none" stroke="black" stroke-dasharray="5,2" d="M303.46,-138.8C227.29,-138.8 91.88,-138.8 91.88,-138.8 91.88,-138.8 91.88,-171.5 91.88,-171.5"/>
<polygon fill="black" stroke="black" points="88.38,-171.5 91.88,-181.5 95.38,-171.5 88.38,-171.5"/>
</g>
<!-- LightboxModule -->
<g id="node14" class="node">
<title>LightboxModule</title>
<polygon fill="#8dd3c7" stroke="black" points="897.38,-217.8 894.38,-221.8 873.38,-221.8 870.38,-217.8 786.62,-217.8 786.62,-181.8 897.38,-181.8 897.38,-217.8"/>
<text text-anchor="middle" x="842" y="-195.6" font-family="Times,serif" font-size="14.00">LightboxModule</text>
</g>
<!-- GalleryModule&#45;&gt;LightboxModule -->
<g id="edge12" class="edge">
<title>GalleryModule&#45;&gt;LightboxModule</title>
<path fill="none" stroke="black" d="M404.57,-134.8C499.9,-134.8 696.72,-134.8 696.72,-134.8 696.72,-134.8 696.72,-199.8 696.72,-199.8 696.72,-199.8 776.25,-199.8 776.25,-199.8"/>
<polygon fill="black" stroke="black" points="776.25,-203.3 786.25,-199.8 776.25,-196.3 776.25,-203.3"/>
</g>
<!-- GallerizeDirective -->
<g id="node12" class="node">
<title>GallerizeDirective</title>
<polygon fill="#8dd3c7" stroke="black" points="1038.88,-152.8 1035.88,-156.8 1014.88,-156.8 1011.88,-152.8 919.12,-152.8 919.12,-116.8 1038.88,-116.8 1038.88,-152.8"/>
<text text-anchor="middle" x="979" y="-130.6" font-family="Times,serif" font-size="14.00">GallerizeDirective</text>
</g>
<!-- GallerizeDirective&#45;&gt;LightboxModule -->
<g id="edge11" class="edge">
<title>GallerizeDirective&#45;&gt;LightboxModule</title>
<path fill="none" stroke="black" d="M940.91,-152.82C940.91,-170.17 940.91,-193.8 940.91,-193.8 940.91,-193.8 907.53,-193.8 907.53,-193.8"/>
<polygon fill="black" stroke="black" points="907.53,-190.3 897.53,-193.8 907.53,-197.3 907.53,-190.3"/>
</g>
<!-- LightboxDirective -->
<g id="node13" class="node">
<title>LightboxDirective</title>
<polygon fill="#8dd3c7" stroke="black" points="901.92,-152.8 898.92,-156.8 877.92,-156.8 874.92,-152.8 782.08,-152.8 782.08,-116.8 901.92,-116.8 901.92,-152.8"/>
<text text-anchor="middle" x="842" y="-130.6" font-family="Times,serif" font-size="14.00">LightboxDirective</text>
</g>
<!-- LightboxDirective&#45;&gt;LightboxModule -->
<g id="edge13" class="edge">
<title>LightboxDirective&#45;&gt;LightboxModule</title>
<path fill="none" stroke="black" d="M842,-152.91C842,-152.91 842,-171.79 842,-171.79"/>
<polygon fill="black" stroke="black" points="838.5,-171.79 842,-181.79 845.5,-171.79 838.5,-171.79"/>
</g>
<!-- GallerizeDirective  -->
<g id="node15" class="node">
<title>GallerizeDirective </title>
<polygon fill="#fb8072" stroke="black" points="1103.38,-285.8 980.62,-285.8 980.62,-249.8 1103.38,-249.8 1103.38,-285.8"/>
<text text-anchor="middle" x="1042" y="-263.6" font-family="Times,serif" font-size="14.00">GallerizeDirective </text>
</g>
<!-- LightboxModule&#45;&gt;GallerizeDirective  -->
<g id="edge14" class="edge">
<title>LightboxModule&#45;&gt;GallerizeDirective </title>
<path fill="none" stroke="black" stroke-dasharray="5,2" d="M897.82,-205.8C946.58,-205.8 1009.62,-205.8 1009.62,-205.8 1009.62,-205.8 1009.62,-239.53 1009.62,-239.53"/>
<polygon fill="black" stroke="black" points="1006.13,-239.53 1009.62,-249.53 1013.13,-239.53 1006.13,-239.53"/>
</g>
<!-- GalleryModule  -->
<g id="node16" class="node">
<title>GalleryModule </title>
<polygon fill="#fb8072" stroke="black" points="962.53,-285.8 857.47,-285.8 857.47,-249.8 962.53,-249.8 962.53,-285.8"/>
<text text-anchor="middle" x="910" y="-263.6" font-family="Times,serif" font-size="14.00">GalleryModule </text>
</g>
<!-- LightboxModule&#45;&gt;GalleryModule  -->
<g id="edge15" class="edge">
<title>LightboxModule&#45;&gt;GalleryModule </title>
<path fill="none" stroke="black" stroke-dasharray="5,2" d="M877.46,-218.02C877.46,-218.02 877.46,-239.53 877.46,-239.53"/>
<polygon fill="black" stroke="black" points="873.96,-239.53 877.46,-249.53 880.96,-239.53 873.96,-239.53"/>
</g>
<!-- LightboxDirective  -->
<g id="node17" class="node">
<title>LightboxDirective </title>
<polygon fill="#fb8072" stroke="black" points="839.42,-285.8 716.58,-285.8 716.58,-249.8 839.42,-249.8 839.42,-285.8"/>
<text text-anchor="middle" x="778" y="-263.6" font-family="Times,serif" font-size="14.00">LightboxDirective </text>
</g>
<!-- LightboxModule&#45;&gt;LightboxDirective  -->
<g id="edge16" class="edge">
<title>LightboxModule&#45;&gt;LightboxDirective </title>
<path fill="none" stroke="black" stroke-dasharray="5,2" d="M813.01,-218.02C813.01,-218.02 813.01,-239.53 813.01,-239.53"/>
<polygon fill="black" stroke="black" points="809.51,-239.53 813.01,-249.53 816.51,-239.53 809.51,-239.53"/>
</g>
</g>
</svg>
